<?xml version="1.0" encoding="utf-8"?>
<!-- Generator: Adobe Illustrator 16.0.0, SVG Export Plug-In . SVG Version: 6.00 Build 0)  -->
<!DOCTYPE svg PUBLIC "-//W3C//DTD SVG 1.1//EN" "http://www.w3.org/Graphics/SVG/1.1/DTD/svg11.dtd">
<svg version="1.1" id="Layer_1" xmlns="http://www.w3.org/2000/svg" xmlns:xlink="http://www.w3.org/1999/xlink" x="0px" y="0px"
	 width="6.508px" height="10.055px" viewBox="0 0 6.508 10.055" enable-background="new 0 0 6.508 10.055" xml:space="preserve">
<circle fill="#FFFFFF" cx="3.331" cy="2.348" r="2.347"/>
<path fill="#FFFFFF" d="M5.763,4.949C5.632,4.787,5.487,4.638,5.33,4.502C4.812,5.061,4.079,5.424,3.255,5.433V5.427
	c-0.003,0-0.006,0.001-0.009,0.001c-0.83,0-1.562-0.368-2.082-0.934C1.008,4.63,0.866,4.779,0.737,4.941
	C0.283,5.513,0,6.228,0,7.015c0,0.834,0.315,1.588,0.819,2.175c0.685,0.492,1.506,0.794,2.396,0.853v0.013
	c0.916-0.052,1.763-0.358,2.465-0.857C6.189,8.61,6.508,7.856,6.508,7.022C6.508,6.235,6.222,5.521,5.763,4.949z"/>
</svg>
