<?xml version="1.0" encoding="utf-8"?>
<!-- Generator: Adobe Illustrator 16.0.0, SVG Export Plug-In . SVG Version: 6.00 Build 0)  -->
<!DOCTYPE svg PUBLIC "-//W3C//DTD SVG 1.1//EN" "http://www.w3.org/Graphics/SVG/1.1/DTD/svg11.dtd">
<svg version="1.1" id="Layer_1" xmlns="http://www.w3.org/2000/svg" xmlns:xlink="http://www.w3.org/1999/xlink" x="0px" y="0px"
	 width="135.861px" height="135.861px" viewBox="87.562 95.582 135.861 135.861"
	 enable-background="new 87.562 95.582 135.861 135.861" xml:space="preserve">
<g>
	<path fill="none" stroke="#FFFFFF" stroke-width="6" stroke-linecap="round" stroke-linejoin="round" stroke-miterlimit="10" d="
		M148.935,163.205c-7.708-2.57-13.264-9.843-13.264-18.414c0-10.718,8.688-19.407,19.406-19.407
		c10.719,0,19.407,8.689,19.407,19.407c0,8.665-5.68,16.004-13.521,18.498"/>
	<path fill="none" stroke="#FFFFFF" stroke-width="6" stroke-linecap="round" stroke-linejoin="round" stroke-miterlimit="10" d="
		M161.309,163.28c16.469-0.416,29.739,17.774,30.352,26.65c0.687,9.961-7.729,11.851-7.729,11.851h-30.099"/>
	<path fill="none" stroke="#FFFFFF" stroke-width="6" stroke-linecap="round" stroke-linejoin="round" stroke-miterlimit="10" d="
		M156.946,201.78H127.12c0,0-8.34-1.889-7.658-11.85c0.606-8.877,13.128-27.06,29.449-26.644"/>
</g>
<circle fill="none" stroke="#FFFFFF" stroke-width="7" stroke-linecap="round" stroke-linejoin="round" stroke-miterlimit="10" cx="155.492" cy="163.513" r="64.931"/>
</svg>
